<?xml version="1.0" standalone="no"?><!DOCTYPE svg PUBLIC "-//W3C//DTD SVG 1.1//EN" "http://www.w3.org/Graphics/SVG/1.1/DTD/svg11.dtd"><svg t="1583935237089" class="icon" viewBox="0 0 1024 1024" version="1.1" xmlns="http://www.w3.org/2000/svg" p-id="4142" xmlns:xlink="http://www.w3.org/1999/xlink" width="200" height="200"><defs><style type="text/css"></style></defs><path d="M946.0608 66.2528a47.9744 47.9744 0 0 0-67.7888 0l-201.984 201.984a563.5072 563.5072 0 0 0-163.7376-24.2176c-223.0784 0-416.4608 129.8944-511.488 319.6928a585.8304 585.8304 0 0 0 172.8512 206.848L15.0912 929.4848a47.9744 47.9744 0 1 0 67.84 67.7888L946.0096 134.144a47.9744 47.9744 0 0 0 0-67.84z m-529.408 305.664c41.1136 0 77.6192 26.1632 90.8288 65.0752L385.8816 558.592a95.8976 95.8976 0 0 1 30.7712-186.7264zM111.04 563.712A486.656 486.656 0 0 1 272.2176 406.272a255.2832 255.2832 0 0 0-15.4112 87.5008c0 54.784 17.2544 105.6256 46.6432 147.2512L242.5728 701.952a486.5536 486.5536 0 0 1-131.5328-138.24zM768.3456 493.7728c0-27.136-4.2496-53.248-12.0832-77.824l-321.4848 321.536a255.744 255.744 0 0 0 333.6192-243.712z" p-id="4143"></path><path d="M830.2976 341.9136L760.9216 411.136l3.7376 2.4064a486.2976 486.2976 0 0 1 149.2992 150.1184 486.656 486.656 0 0 1-149.2992 150.1696 468.0704 468.0704 0 0 1-366.0288 59.5968l-76.8 76.8c61.1328 22.016 125.6448 33.2288 190.6176 33.1264 223.0784 0 416.4608-129.8944 511.488-319.6928A584.7552 584.7552 0 0 0 830.2976 341.9136z" p-id="4144"></path></svg>