<?xml version="1.0" encoding="UTF-8"?>
<svg width="239px" height="138px" viewBox="0 0 239 138" version="1.1" xmlns="http://www.w3.org/2000/svg" xmlns:xlink="http://www.w3.org/1999/xlink">
    <!-- Generator: Sketch 59.1 (86144) - https://sketch.com -->
    <title>Group 46</title>
    <desc>Created with Sketch.</desc>
    <g id="员工首页" stroke="none" stroke-width="1" fill="none" fill-rule="evenodd">
        <g id="员工首页（三等份和二等分样式）" transform="translate(-909.000000, -183.000000)">
            <g id="Group备份-4" transform="translate(824.000000, 99.000000)">
                <g id="编组-8" transform="translate(5.147989, 61.000000)">
                    <g id="Group-46" transform="translate(79.852011, 23.000000)">
                        <g id="蛋糕" transform="translate(2.000000, 33.300000)">
                            <path d="M43.7277704,83.1 L185.87223,83.1 C187.655267,83.1 188.30184,83.2856512 188.953691,83.6342654 C189.605543,83.9828796 190.11712,84.4944567 190.465735,85.1463086 C190.814349,85.7981604 191,86.4447329 191,88.2277704 L191,99.5722296 C191,101.355267 190.814349,102.00184 190.465735,102.653691 C190.11712,103.305543 189.605543,103.81712 188.953691,104.165735 C188.30184,104.514349 187.655267,104.7 185.87223,104.7 L43.7277704,104.7 C41.9447329,104.7 41.2981604,104.514349 40.6463086,104.165735 C39.9944567,103.81712 39.4828796,103.305543 39.1342654,102.653691 C38.7856512,102.00184 38.6,101.355267 38.6,99.5722296 L38.6,88.2277704 C38.6,86.4447329 38.7856512,85.7981604 39.1342654,85.1463086 C39.4828796,84.4944567 39.9944567,83.9828796 40.6463086,83.6342654 C41.2981604,83.2856512 41.9447329,83.1 43.7277704,83.1 Z" id="Rectangle-27-Copy" fill="#FEDFC9"></path>
                            <line x1="0.5" y1="104.2" x2="120.5" y2="104.2" id="直线" stroke="#333333" stroke-linecap="round"></line>
                            <line x1="123" y1="104.2" x2="128" y2="104.2" id="直线备份" stroke="#333333" stroke-linecap="round"></line>
                            <line x1="136" y1="104.2" x2="236" y2="104.2" id="直线备份-2" stroke="#333333" stroke-linecap="round"></line>
                            <path d="M163,30.0203484 C164.787129,31.3410745 168,34.7 173,32.7 C178,30.7 176,19.7 173,22.7 C169.234156,26.4658438 178.436431,27.676756 182,26.7 C185.036705,25.8676547 187,22.7 185,16.7" id="路径-13" stroke="#333333" stroke-linecap="round" stroke-linejoin="round"></path>
                            <path d="M31.8112839,53.3349859 C32.9081007,54.1296156 34.8799406,56.1505509 37.9485973,54.9472284 C41.0172541,53.7439059 39.7897914,47.1256323 37.9485973,48.930616 C35.6373809,51.1963783 41.2851054,51.9249372 43.4721795,51.337261 C45.3359006,50.8364711 46.5408362,48.930616 45.3133735,45.3206486" id="路径-13备份" stroke="#333333" stroke-linecap="round" stroke-linejoin="round" transform="translate(38.811284, 50.320649) scale(1, -1) translate(-38.811284, -50.320649) "></path>
                            <polygon id="Rectangle-27-Copy备份" fill="#FFC195" points="38.6 83.1 191 83.1 191 91.2 38.6 91.2"></polygon>
                            <polygon id="Rectangle-27-Copy-3" fill="#FEDFC9" points="57.8 47.1 171.8 47.1 171.8 73.5 57.8 73.5"></polygon>
                            <polygon id="Rectangle-27-Copy-3备份" fill="#FFC195" points="57.8 47.1 171.8 47.1 171.8 57.9 57.8 57.9"></polygon>
                            <polygon id="Rectangle-27-Copy-5" fill="#FEDFC9" points="86.6 20.7 144.2 20.7 144.2 47.1 86.6 47.1"></polygon>
                            <polygon id="Rectangle-27-Copy-5备份" fill="#FFC195" points="86.6 20.7 144.2 20.7 144.2 27 86.6 27"></polygon>
                            <path d="M114.281943,0.6 L116.518057,0.6 C116.963817,0.6 117.12546,0.646412806 117.288423,0.733566352 C117.451386,0.820719898 117.57928,0.948614185 117.666434,1.11157715 C117.753587,1.27454011 117.8,1.43618323 117.8,1.8819426 L117.8,14.6180574 C117.8,15.0638168 117.753587,15.2254599 117.666434,15.3884229 C117.57928,15.5513858 117.451386,15.6792801 117.288423,15.7664336 C117.12546,15.8535872 116.963817,15.9 116.518057,15.9 L114.281943,15.9 C113.836183,15.9 113.67454,15.8535872 113.511577,15.7664336 C113.348614,15.6792801 113.22072,15.5513858 113.133566,15.3884229 C113.046413,15.2254599 113,15.0638168 113,14.6180574 L113,1.8819426 C113,1.43618323 113.046413,1.27454011 113.133566,1.11157715 C113.22072,0.948614185 113.348614,0.820719898 113.511577,0.733566352 C113.67454,0.646412806 113.836183,0.6 114.281943,0.6 Z" id="Rectangle-27-Copy-7" fill="#FF6A9D"></path>
                            <path d="M180.8,68.7 C183.119596,68.7 185,70.5804041 185,72.9 C185,75.2195959 183.119596,77.1 180.8,77.1 L180.634483,77.1 C178.314887,77.1 176.434483,75.2195959 176.434483,72.9 C176.434483,70.5804041 178.314887,68.7 180.634483,68.7 L180.8,68.7 Z M164.62069,68.7 C166.940286,68.7 168.82069,70.5804041 168.82069,72.9 C168.82069,75.2195959 166.940286,77.1 164.62069,77.1 L164.455172,77.1 C162.135576,77.1 160.255172,75.2195959 160.255172,72.9 C160.255172,70.5804041 162.135576,68.7 164.455172,68.7 L164.62069,68.7 Z M148.441379,68.7 C150.760975,68.7 152.641379,70.5804041 152.641379,72.9 C152.641379,75.2195959 150.760975,77.1 148.441379,77.1 L148.275862,77.1 C145.956266,77.1 144.075862,75.2195959 144.075862,72.9 C144.075862,70.5804041 145.956266,68.7 148.275862,68.7 L148.441379,68.7 Z M132.262069,68.7 C134.581665,68.7 136.462069,70.5804041 136.462069,72.9 C136.462069,75.2195959 134.581665,77.1 132.262069,77.1 L132.096552,77.1 C129.776956,77.1 127.896552,75.2195959 127.896552,72.9 C127.896552,70.5804041 129.776956,68.7 132.096552,68.7 L132.262069,68.7 Z M116.082759,68.7 C118.402355,68.7 120.282759,70.5804041 120.282759,72.9 C120.282759,75.2195959 118.402355,77.1 116.082759,77.1 L115.917241,77.1 C113.597645,77.1 111.717241,75.2195959 111.717241,72.9 C111.717241,70.5804041 113.597645,68.7 115.917241,68.7 L116.082759,68.7 Z M99.9034483,68.7 C102.223044,68.7 104.103448,70.5804041 104.103448,72.9 C104.103448,75.2195959 102.223044,77.1 99.9034483,77.1 L99.737931,77.1 C97.4183351,77.1 95.537931,75.2195959 95.537931,72.9 C95.537931,70.5804041 97.4183351,68.7 99.737931,68.7 L99.9034483,68.7 Z M83.7241379,68.7 C86.0437339,68.7 87.9241379,70.5804041 87.9241379,72.9 C87.9241379,75.2195959 86.0437339,77.1 83.7241379,77.1 L83.5586207,77.1 C81.2390247,77.1 79.3586207,75.2195959 79.3586207,72.9 C79.3586207,70.5804041 81.2390247,68.7 83.5586207,68.7 L83.7241379,68.7 Z M67.5448276,68.7 C69.8644235,68.7 71.7448276,70.5804041 71.7448276,72.9 C71.7448276,75.2195959 69.8644235,77.1 67.5448276,77.1 L67.3793103,77.1 C65.0597144,77.1 63.1793103,75.2195959 63.1793103,72.9 C63.1793103,70.5804041 65.0597144,68.7 67.3793103,68.7 L67.5448276,68.7 Z M51.3655172,68.7 C53.6851132,68.7 55.5655172,70.5804041 55.5655172,72.9 C55.5655172,75.2195959 53.6851132,77.1 51.3655172,77.1 L51.2,77.1 C48.8804041,77.1 47,75.2195959 47,72.9 C47,70.5804041 48.8804041,68.7 51.2,68.7 L51.3655172,68.7 Z" id="Combined-Shape" fill="#4E68FF"></path>
                            <path d="M162.482132,37.5 C164.31454,37.5 165.8,38.9854603 165.8,40.8178683 L165.8,41.3821317 C165.8,43.2145397 164.31454,44.7 162.482132,44.7 C160.649724,44.7 159.164263,43.2145397 159.164263,41.3821317 L159.164263,40.8178683 C159.164263,38.9854603 160.649724,37.5 162.482132,37.5 Z M146.788088,37.5 C148.620496,37.5 150.105956,38.9854603 150.105956,40.8178683 L150.105956,41.3821317 C150.105956,43.2145397 148.620496,44.7 146.788088,44.7 C144.95568,44.7 143.470219,43.2145397 143.470219,41.3821317 L143.470219,40.8178683 C143.470219,38.9854603 144.95568,37.5 146.788088,37.5 Z M131.094044,37.5 C132.926452,37.5 134.411912,38.9854603 134.411912,40.8178683 L134.411912,41.3821317 C134.411912,43.2145397 132.926452,44.7 131.094044,44.7 C129.261636,44.7 127.776176,43.2145397 127.776176,41.3821317 L127.776176,40.8178683 C127.776176,38.9854603 129.261636,37.5 131.094044,37.5 Z M115.4,37.5 C117.232408,37.5 118.717868,38.9854603 118.717868,40.8178683 L118.717868,41.3821317 C118.717868,43.2145397 117.232408,44.7 115.4,44.7 C113.567592,44.7 112.082132,43.2145397 112.082132,41.3821317 L112.082132,40.8178683 C112.082132,38.9854603 113.567592,37.5 115.4,37.5 Z M99.7059561,37.5 C101.538364,37.5 103.023824,38.9854603 103.023824,40.8178683 L103.023824,41.3821317 C103.023824,43.2145397 101.538364,44.7 99.7059561,44.7 C97.873548,44.7 96.3880878,43.2145397 96.3880878,41.3821317 L96.3880878,40.8178683 C96.3880878,38.9854603 97.873548,37.5 99.7059561,37.5 Z M84.0119122,37.5 C85.8443203,37.5 87.3297806,38.9854603 87.3297806,40.8178683 L87.3297806,41.3821317 C87.3297806,43.2145397 85.8443203,44.7 84.0119122,44.7 C82.1795041,44.7 80.6940439,43.2145397 80.6940439,41.3821317 L80.6940439,40.8178683 C80.6940439,38.9854603 82.1795041,37.5 84.0119122,37.5 Z M68.3178683,37.5 C70.1502764,37.5 71.6357367,38.9854603 71.6357367,40.8178683 L71.6357367,41.3821317 C71.6357367,43.2145397 70.1502764,44.7 68.3178683,44.7 C66.4854603,44.7 65,43.2145397 65,41.3821317 L65,40.8178683 C65,38.9854603 66.4854603,37.5 68.3178683,37.5 Z" id="Combined-Shape-Copy-2" fill="#4E68FF"></path>
                            <path d="M130.552727,11.1 C132.125233,11.1 133.4,12.3747674 133.4,13.9472727 L133.4,14.2527273 C133.4,15.8252326 132.125233,17.1 130.552727,17.1 C128.980222,17.1 127.705455,15.8252326 127.705455,14.2527273 L127.705455,13.9472727 C127.705455,12.3747674 128.980222,11.1 130.552727,11.1 Z M116,11.1 C117.572505,11.1 118.847273,12.3747674 118.847273,13.9472727 L118.847273,14.2527273 C118.847273,15.8252326 117.572505,17.1 116,17.1 C114.427495,17.1 113.152727,15.8252326 113.152727,14.2527273 L113.152727,13.9472727 C113.152727,12.3747674 114.427495,11.1 116,11.1 Z M101.447273,11.1 C103.019778,11.1 104.294545,12.3747674 104.294545,13.9472727 L104.294545,14.2527273 C104.294545,15.8252326 103.019778,17.1 101.447273,17.1 C99.8747674,17.1 98.6,15.8252326 98.6,14.2527273 L98.6,13.9472727 C98.6,12.3747674 99.8747674,11.1 101.447273,11.1 Z" id="Combined-Shape-Copy-3" fill="#4E68FF"></path>
                            <path d="M41.6,73.5 L189.2,73.5 C192.845079,73.5 195.8,76.4549207 195.8,80.1 L195.8,81.5722296 C195.8,83.3552671 195.614349,84.0018396 195.265735,84.6536914 C194.91712,85.3055433 194.405543,85.8171204 193.753691,86.1657346 C193.10184,86.5143488 192.455267,86.7 190.67223,86.7 L40.1277704,86.7 C38.3447329,86.7 37.6981604,86.5143488 37.0463086,86.1657346 C36.3944567,85.8171204 35.8828796,85.3055433 35.5342654,84.6536914 C35.1856512,84.0018396 35,83.3552671 35,81.5722296 L35,80.1 C35,76.4549207 37.9549207,73.5 41.6,73.5 Z" id="Rectangle-27-Copy-2" fill="#E9ECFD"></path>
                            <path d="M59.6,41.1 L170,41.1 C173.645079,41.1 176.6,44.0549207 176.6,47.7 L176.6,50.4541722 C176.6,51.7914503 176.460762,52.2763797 176.199301,52.7652686 C175.93784,53.2541574 175.554157,53.6378403 175.065269,53.8993009 C174.57638,54.1607616 174.09145,54.3 172.754172,54.3 L56.8458278,54.3 C55.5085497,54.3 55.0236203,54.1607616 54.5347314,53.8993009 C54.0458426,53.6378403 53.6621597,53.2541574 53.4006991,52.7652686 C53.1392384,52.2763797 53,51.7914503 53,50.4541722 L53,47.7 C53,44.0549207 55.9549207,41.1 59.6,41.1 Z" id="Rectangle-27-Copy-4" fill="#E9ECFD"></path>
                            <path d="M90.2,14.7 L141.8,14.7 C144.450967,14.7 146.6,16.8490332 146.6,19.5 L146.6,21.7361148 C146.6,22.6276335 146.507174,22.9509198 146.332867,23.2768457 C146.15856,23.6027716 145.902772,23.8585602 145.576846,24.0328673 C145.25092,24.2071744 144.927634,24.3 144.036115,24.3 L87.9638852,24.3 C87.0723665,24.3 86.7490802,24.2071744 86.4231543,24.0328673 C86.0972284,23.8585602 85.8414398,23.6027716 85.6671327,23.2768457 C85.4928256,22.9509198 85.4,22.6276335 85.4,21.7361148 L85.4,19.5 C85.4,16.8490332 87.5490332,14.7 90.2,14.7 Z" id="Rectangle-27-Copy-6" fill="#E9ECFD"></path>
                        </g>
                        <g id="Group-47">
                            <polygon id="Rectangle-29" fill="#FC6868" transform="translate(182.166254, 35.541150) rotate(20.000000) translate(-182.166254, -35.541150) " points="170.966254 30.7411502 193.366254 30.7411502 193.366254 40.3411502 170.966254 40.3411502"></polygon>
                            <polygon id="Rectangle-29-Copy" fill="#4E68FF" transform="translate(224.873827, 68.765669) rotate(-10.000000) translate(-224.873827, -68.765669) " points="216.873827 65.3370977 232.873827 65.3370977 232.873827 72.1942406 216.873827 72.1942406"></polygon>
                            <polygon id="Rectangle-29-Copy-7" fill="#80F467" transform="translate(5.273827, 131.994241) rotate(30.000000) translate(-5.273827, -131.994241) " points="0.473827205 129.937098 10.0738272 129.937098 10.0738272 134.051383 0.473827205 134.051383"></polygon>
                            <polygon id="Rectangle-29-Copy-2" fill="#54C7FC" transform="translate(55.281001, 26.517558) rotate(-32.000000) translate(-55.281001, -26.517558) " points="48.8810007 23.7747009 61.6810007 23.7747009 61.6810007 29.2604152 48.8810007 29.2604152"></polygon>
                            <polygon id="Rectangle-29-Copy-3" fill="#FFC200" transform="translate(32.477650, 62.543444) rotate(-32.000000) translate(-32.477650, -62.543444) " points="43.1339477 56.1660366 43.6776495 68.9208507 21.2776495 61.7218663"></polygon>
                            <polygon id="Rectangle-29-Copy-4" fill="#FDCC77" transform="translate(153.101668, 40.939613) rotate(76.000000) translate(-153.101668, -40.939613) " points="157.626926 36.4662942 157.901668 42.9115091 148.301668 45.4129325"></polygon>
                            <polygon id="Rectangle-29-Copy-6" fill="#FD77E9" transform="translate(218.701668, 101.739613) rotate(12.000000) translate(-218.701668, -101.739613) " points="223.226926 97.2662942 223.501668 103.711509 213.901668 106.212932"></polygon>
                            <path d="M104.845828,22.25 L107.154172,22.25 C108.49145,22.25 108.97638,22.3892384 109.465269,22.6506991 C109.954157,22.9121597 110.33784,23.2958426 110.599301,23.7847314 C110.860762,24.2736203 111,24.7585497 111,26.0958278 L111,28.4041722 C111,29.7414503 110.860762,30.2263797 110.599301,30.7152686 C110.33784,31.2041574 109.954157,31.5878403 109.465269,31.8493009 C108.97638,32.1107616 108.49145,32.25 107.154172,32.25 L104.845828,32.25 C103.50855,32.25 103.02362,32.1107616 102.534731,31.8493009 C102.045843,31.5878403 101.66216,31.2041574 101.400699,30.7152686 C101.139238,30.2263797 101,29.7414503 101,28.4041722 L101,26.0958278 C101,24.7585497 101.139238,24.2736203 101.400699,23.7847314 C101.66216,23.2958426 102.045843,22.9121597 102.534731,22.6506991 C103.02362,22.3892384 103.50855,22.25 104.845828,22.25 Z" id="Rectangle-30" fill="#80F467"></path>
                            <path d="M23,106.25 C24.6568542,106.25 26,107.593146 26,109.25 C26,110.906854 24.6568542,112.25 23,112.25 C21.3431458,112.25 20,110.906854 20,109.25 C20,107.593146 21.3431458,106.25 23,106.25 Z" id="Rectangle-30-Copy" fill="#C66BF1"></path>
                            <path d="M172,59.25 C173.656854,59.25 175,60.5931458 175,62.25 C175,63.9068542 173.656854,65.25 172,65.25 C170.343146,65.25 169,63.9068542 169,62.25 C169,60.5931458 170.343146,59.25 172,59.25 Z" id="Rectangle-30-Copy-2" fill="#B9F1B8"></path>
                            <polygon id="Rectangle-29-Copy-5" fill="#FDCC77" transform="translate(136.281771, 3.467047) rotate(123.000000) translate(-136.281771, -3.467047) " points="138.544401 1.23038786 138.681771 4.45299532 133.881771 5.70370699"></polygon>
                        </g>
                    </g>
                </g>
            </g>
        </g>
    </g>
</svg>