<?xml version="1.0" encoding="UTF-8"?>
<svg width="46px" height="46px" viewBox="0 0 46 46" version="1.1" xmlns="http://www.w3.org/2000/svg" xmlns:xlink="http://www.w3.org/1999/xlink">
    <!-- Generator: Sketch 59.1 (86144) - https://sketch.com -->
    <title>路径</title>
    <desc>Created with Sketch.</desc>
    <defs>
        <linearGradient x1="94.6802635%" y1="21.2084582%" x2="23.7238081%" y2="100%" id="linearGradient-1">
            <stop stop-color="#FFE465" offset="0%"></stop>
            <stop stop-color="#FC9E20" offset="100%"></stop>
        </linearGradient>
    </defs>
    <g id="员工首页" stroke="none" stroke-width="1" fill="none" fill-rule="evenodd">
        <g id="员工首页（三等份和二等分样式）" transform="translate(-1265.000000, -212.000000)" fill="url(#linearGradient-1)">
            <g id="Group备份-4" transform="translate(824.000000, 99.000000)">
                <g id="编组-17" transform="translate(378.000000, 110.000000)">
                    <g id="编组-27">
                        <g id="wangguan-" transform="translate(85.658032, 25.843689) scale(-1, 1) rotate(4.000000) translate(-85.658032, -25.843689) translate(63.158032, 2.343689)">
                            <path d="M36.2171652,6.37801398 C37.4907159,4.8581277 37.2363612,2.57859517 35.7085254,1.31237833 C34.1806896,0.0461615335 32.1433081,0.299726185 30.8697574,1.81961246 C29.5962067,3.33949873 29.8505614,5.61903126 31.3783972,6.88524811 C31.3783624,7.13853339 31.6330307,7.13849847 32.1423325,7.3917139 L30.8678759,15.4970173 C30.6130682,16.5101933 29.8489935,17.0168686 29.0850234,16.7636882 L13.2959351,14.2330008 C13.5507776,12.9665396 13.0416152,11.700183 12.0230463,10.9404669 C10.2405073,9.92757026 7.9484575,10.1811699 6.92957515,11.7010212 C5.65602445,13.2209075 5.91041401,15.2471548 7.18358146,16.5134065 C8.20215028,17.2731226 9.47545709,17.5262333 10.4941653,17.2728083 L15.5854763,32.215941 C15.8400401,32.9757619 15.3305641,33.9889728 14.5665242,34.2423629 L6.92609097,37.0295487 L6.1621905,36.2697976 C4.6343547,35.0035809 2.34230486,35.2571804 1.32342246,36.7770318 C0.0498717576,38.296918 0.304226484,40.5764506 1.83209712,41.5893821 C3.35993291,42.8555989 5.65198275,42.6019994 6.67086515,41.082148 C14.0565815,44.3030745 18.0889742,46.082348 18.7680433,46.4199685 C19.786647,46.9263993 25.0160662,44.9426891 26.54203,44.3023687 C28.0679938,43.6620484 33.463503,39.9985019 37.029452,35.6921633 C40.595401,31.3858247 41.4149565,28.7614584 43.4330584,24.6404732 C45.4511602,20.5194879 44.1021841,17.0840099 43.592952,16.3242239 L36.2171652,6.37801398 Z" id="路径" transform="translate(22.507822, 23.501810) rotate(1.000000) translate(-22.507822, -23.501810) "></path>
                        </g>
                    </g>
                </g>
            </g>
        </g>
    </g>
</svg>