<?xml version="1.0" encoding="UTF-8"?>
<svg width="20px" height="20px" viewBox="0 0 20 20" version="1.1" xmlns="http://www.w3.org/2000/svg" xmlns:xlink="http://www.w3.org/1999/xlink">
    <!-- Generator: Sketch 59.1 (86144) - https://sketch.com -->
    <title>形状结合</title>
    <desc>Created with Sketch.</desc>
    <defs>
        <linearGradient x1="96.9037989%" y1="24.6000895%" x2="3.09620113%" y2="100%" id="linearGradient-1">
            <stop stop-color="#FF6C6C" offset="0%"></stop>
            <stop stop-color="#FFD06F" offset="100%"></stop>
        </linearGradient>
    </defs>
    <g id="员工首页" stroke="none" stroke-width="1" fill="none" fill-rule="evenodd">
        <g id="员工首页（三等份和二等分样式）3" transform="translate(-415.000000, -711.000000)" fill="url(#linearGradient-1)">
            <g id="Group备份-13" transform="translate(198.000000, 583.000000)">
                <g id="Group-34" transform="translate(37.000000, 84.000000)">
                    <g id="编组-4" transform="translate(123.000000, 44.000000)">
                        <path d="M68.2850158,2.84217094e-14 C68.2850158,2.84217094e-14 71.7705513,0.389269596 69.7068933,8.01087197 L69.7068933,8.01087197 L75.0393992,8.01040987 C75.1418196,8.00421905 76.3708645,7.95769665 76.3708645,9.29053878 C76.3708645,9.29053878 76.3708645,11.2934458 74.3911858,18.0250174 C74.3911858,18.0250174 73.7779253,20 73.0248365,20 L73.0248365,20 L65.0229443,20 C64.4651661,20 63.0432886,19.624223 63.0432886,18.5808714 L63.0432886,18.5808714 L63.0432886,8.01087197 C63.0432886,8.01087197 67.0022335,5.09019313 67.0022335,1.3628903 C67.1139541,1.16815241 66.8077018,2.84217094e-14 68.2850158,2.84217094e-14 Z M60.8668646,8.01445727 C60.9559134,8.01631839 61.6683038,8.05519395 61.6683038,8.82276469 L61.6683038,8.82276469 L61.6681277,19.5587064 C61.6656536,19.6175425 61.6291574,19.9999771 61.0983838,19.9999771 L61.0983838,19.9999771 L58.3296051,19.9997761 C58.2506627,19.9969615 57.6585948,19.9547437 57.6585948,19.3214756 L57.6585948,19.3214756 L57,8.66124289 C57,8.66124289 57.0101481,8.01437363 57.6687429,8.01437363 L57.6687429,8.01437363 Z" id="形状结合"></path>
                    </g>
                </g>
            </g>
        </g>
    </g>
</svg>