<?xml version="1.0" encoding="UTF-8"?>
<svg width="327px" height="210px" viewBox="0 0 327 210" version="1.1" xmlns="http://www.w3.org/2000/svg" xmlns:xlink="http://www.w3.org/1999/xlink">
    <!-- Generator: Sketch 61.2 (89653) - https://sketch.com -->
    <title>HappyBirthday</title>
    <desc>Created with Sketch.</desc>
    <g id="员工首页" stroke="none" stroke-width="1" fill="none" fill-rule="evenodd">
        <g id="员工首页（三等份和二等分样式）" transform="translate(-854.000000, -186.000000)" fill="#4E68FF" fill-rule="nonzero">
            <g id="Group备份-4" transform="translate(824.000000, 99.000000)">
                <g id="编组-8" transform="translate(5.147989, 61.000000)">
                    <path d="M60.52,102.426121 L72.36,102.426121 L72.36,76.8261213 L94.76,76.8261213 L94.76,102.426121 L106.52,102.426121 L106.52,43.2261213 L94.76,43.2261213 L94.76,66.5061213 L72.36,66.5061213 L72.36,43.2261213 L60.52,43.2261213 L60.52,102.426121 Z M131.16,103.546121 C136.28,103.546121 140.76,100.986121 144.68,97.6261213 L144.92,97.6261213 L145.8,102.426121 L155.4,102.426121 L155.4,76.2661213 C155.4,63.3061213 149.56,56.5061213 138.2,56.5061213 C131.16,56.5061213 124.76,59.1461213 119.48,62.4261213 L123.72,70.1861213 L124.609096,69.6808735 C128.452245,67.532652 132.177143,65.9461213 136.04,65.9461213 C141.56,65.9461213 143.48,69.3061213 143.64,73.7061213 C125.64,75.6261213 117.88,80.6661213 117.88,90.2661213 C117.88,97.8661213 123.16,103.546121 131.16,103.546121 Z M135,94.3461213 C131.56,94.3461213 129.08,92.8261213 129.08,89.3061213 C129.08,85.3061213 132.76,82.3461213 143.64,80.9061213 L143.64,89.9461213 C140.84,92.7461213 138.36,94.3461213 135,94.3461213 Z M167.4,119.626121 L179.08,119.626121 L179.08,106.026121 L178.76,98.6661213 C182.2,101.786121 185.96,103.546121 189.88,103.546121 C199.72,103.546121 208.92,94.6661213 208.92,79.3061213 C208.92,65.5461213 202.36,56.5061213 191.32,56.5061213 C186.52,56.5061213 181.88,59.0661213 178.12,62.2661213 L177.8,62.2661213 L177,57.6261213 L167.4,57.6261213 L167.4,119.626121 Z M187.24,93.8661213 C184.84,93.8661213 181.96,92.9861213 179.08,90.5061213 L179.08,70.8261213 C182.2,67.7061213 184.92,66.1861213 187.96,66.1861213 C194.12,66.1861213 196.84,70.9061213 196.84,79.4661213 C196.84,89.2261213 192.68,93.8661213 187.24,93.8661213 Z M218.92,119.626121 L230.6,119.626121 L230.6,106.026121 L230.28,98.6661213 C233.72,101.786121 237.48,103.546121 241.4,103.546121 C251.24,103.546121 260.44,94.6661213 260.44,79.3061213 C260.44,65.5461213 253.88,56.5061213 242.84,56.5061213 C238.04,56.5061213 233.4,59.0661213 229.64,62.2661213 L229.32,62.2661213 L228.52,57.6261213 L218.92,57.6261213 L218.92,119.626121 Z M238.76,93.8661213 C236.36,93.8661213 233.48,92.9861213 230.6,90.5061213 L230.6,70.8261213 C233.72,67.7061213 236.44,66.1861213 239.48,66.1861213 C245.64,66.1861213 248.36,70.9061213 248.36,79.4661213 C248.36,89.2261213 244.2,93.8661213 238.76,93.8661213 Z M273.72,120.426121 C283.72,120.426121 288.52,114.346121 292.44,103.786121 L308.36,57.6261213 L297.08,57.6261213 L290.92,78.4261213 C289.88,82.5861213 288.76,86.9061213 287.72,91.0661213 L287.32,91.0661213 C286.04,86.7461213 284.92,82.4261213 283.56,78.4261213 L276.44,57.6261213 L264.6,57.6261213 L282.04,101.626121 L281.24,104.266121 C279.96,108.186121 277.4,111.066121 272.84,111.066121 C271.8,111.066121 270.52,110.746121 269.72,110.506121 L267.56,119.546121 C269.32,120.106121 271.08,120.426121 273.72,120.426121 Z M17,192.426121 L38.12,192.426121 C51.16,192.426121 61.08,186.906121 61.08,174.986121 C61.08,166.986121 56.36,162.506121 49.96,160.986121 L49.96,160.586121 C55,158.826121 58.04,153.226121 58.04,147.786121 C58.04,136.746121 48.76,133.226121 36.6,133.226121 L17,133.226121 L17,192.426121 Z M28.84,157.306121 L28.84,142.266121 L35.88,142.266121 C43,142.266121 46.52,144.346121 46.52,149.546121 C46.52,154.266121 43.24,157.306121 35.72,157.306121 L28.84,157.306121 Z M28.84,183.306121 L28.84,166.106121 L37.08,166.106121 C45.24,166.106121 49.56,168.506121 49.56,174.266121 C49.56,180.426121 45.16,183.306121 37.08,183.306121 L28.84,183.306121 Z M70.52,192.426121 L82.2,192.426121 L82.2,147.626121 L70.52,147.626121 L70.52,192.426121 Z M76.44,140.426121 C80.44,140.426121 83.4,137.706121 83.4,134.026121 C83.4,130.186121 80.44,127.626121 76.44,127.626121 C72.36,127.626121 69.4,130.186121 69.4,134.026121 C69.4,137.706121 72.36,140.426121 76.44,140.426121 Z M94.84,192.426121 L106.52,192.426121 L106.52,165.706121 C109.08,159.226121 113.32,156.906121 116.84,156.906121 C118.68,156.906121 119.96,157.146121 121.48,157.626121 L123.56,147.466121 C122.2,146.906121 120.76,146.506121 118.28,146.506121 C113.64,146.506121 108.84,149.706121 105.56,155.546121 L105.24,155.546121 L104.44,147.626121 L94.84,147.626121 L94.84,192.426121 Z M146.12,193.546121 C150.04,193.546121 153.16,192.666121 155.56,191.866121 L153.64,183.306121 C152.44,183.786121 150.68,184.266121 149.24,184.266121 C145.24,184.266121 143.16,181.866121 143.16,176.746121 L143.16,156.906121 L154.2,156.906121 L154.2,147.626121 L143.16,147.626121 L143.16,135.626121 L133.32,135.626121 L131.96,147.626121 L125.08,148.186121 L125.08,156.906121 L131.4,156.906121 L131.4,176.746121 C131.4,186.826121 135.48,193.546121 146.12,193.546121 Z M163.32,192.426121 L175,192.426121 L175,161.626121 C178.36,158.346121 180.68,156.586121 184.36,156.586121 C188.682807,156.586121 190.611868,158.979867 190.678224,165.588069 L190.68,192.426121 L202.44,192.426121 L202.44,164.506121 C202.44,153.226121 198.28,146.506121 188.6,146.506121 C182.52,146.506121 178.12,149.706121 174.52,153.066121 L175,144.666121 L175,128.586121 L163.32,128.586121 L163.32,192.426121 Z M230.28,193.546121 C234.92,193.546121 239.4,190.986121 242.68,187.786121 L242.92,187.786121 L243.88,192.426121 L253.4,192.426121 L253.4,128.586121 L241.64,128.586121 L241.64,144.346121 L242.12,151.386121 C238.92,148.426121 235.8,146.506121 230.76,146.506121 C221.08,146.506121 211.96,155.466121 211.96,170.106121 C211.96,184.746121 219.16,193.546121 230.28,193.546121 Z M233.32,183.866121 C227.4,183.866121 224.04,179.226121 224.04,169.946121 C224.04,160.986121 228.28,156.186121 233.32,156.186121 C236.12,156.186121 238.92,157.066121 241.64,159.546121 L241.64,179.226121 C239.08,182.586121 236.44,183.866121 233.32,183.866121 Z M277.08,193.546121 C282.2,193.546121 286.68,190.986121 290.6,187.626121 L290.84,187.626121 L291.72,192.426121 L301.32,192.426121 L301.32,166.266121 C301.32,153.306121 295.48,146.506121 284.12,146.506121 C277.08,146.506121 270.68,149.146121 265.4,152.426121 L269.64,160.186121 L270.529096,159.680874 C274.372245,157.532652 278.097143,155.946121 281.96,155.946121 C287.48,155.946121 289.4,159.306121 289.56,163.706121 C271.56,165.626121 263.8,170.666121 263.8,180.266121 C263.8,187.866121 269.08,193.546121 277.08,193.546121 Z M280.92,184.346121 C277.48,184.346121 275,182.826121 275,179.306121 C275,175.306121 278.68,172.346121 289.56,170.906121 L289.56,179.946121 C286.76,182.746121 284.28,184.346121 280.92,184.346121 Z M317.24,210.426121 C314.6,210.426121 312.84,210.106121 311.08,209.546121 L313.24,200.506121 C314.04,200.746121 315.32,201.066121 316.36,201.066121 C320.92,201.066121 323.48,198.186121 324.76,194.266121 L325.56,191.626121 L308.12,147.626121 L319.96,147.626121 L327.08,168.426121 C328.44,172.426121 329.56,176.746121 330.84,181.066121 L331.24,181.066121 C332.28,176.906121 333.4,172.586121 334.44,168.426121 L340.6,147.626121 L351.88,147.626121 L335.96,193.786121 L335.644441,194.621334 C331.780302,204.666064 326.973333,210.426121 317.24,210.426121 Z" id="HappyBirthday" transform="translate(184.440000, 126.826121) rotate(-16.000000) translate(-184.440000, -126.826121) "></path>
                </g>
            </g>
        </g>
    </g>
</svg>