<?xml version="1.0" encoding="UTF-8"?>
<svg width="153px" height="132px" viewBox="0 0 153 132" version="1.1" xmlns="http://www.w3.org/2000/svg" xmlns:xlink="http://www.w3.org/1999/xlink">
    <!-- Generator: Sketch 59.1 (86144) - https://sketch.com -->
    <title>编组 21</title>
    <desc>Created with Sketch.</desc>
    <g id="员工首页" stroke="none" stroke-width="1" fill="none" fill-rule="evenodd">
        <g id="员工首页（三等份和二等分样式）" transform="translate(-1088.000000, -3173.000000)">
            <g id="Group备份-16" transform="translate(824.000000, 3098.000000)">
                <g id="编组-21" transform="translate(252.000000, 75.000000)">
                    <rect id="矩形" fill="#E9ECFD" x="37.5" y="52" width="106" height="79"></rect>
                    <path d="M82.252,97.6 C82.144,97.912 81.964,98.308 81.796,98.644 L79.18,98.644 C79.096,98.332 78.916,97.924 78.724,97.6 L82.252,97.6 Z M85.648,98.644 L82.936,98.644 L83.173,98.2285 C83.254,98.083 83.338,97.93 83.428,97.768 L82.612,97.6 L85.024,97.6 L85.024,96.724 L81.256,96.724 C81.136,96.424 80.968,96.088 80.8,95.824 L79.72,96.028 C79.84,96.244 79.936,96.484 80.032,96.724 L75.94,96.724 L75.94,97.6 L78.496,97.6 L77.692,97.78 C77.824,98.044 77.956,98.356 78.04,98.644 L75.388,98.644 L75.388,99.532 L85.648,99.532 L85.648,98.644 Z M83.2,101.476 L77.824,101.476 L77.824,100.792 L83.2,100.792 L83.2,101.476 Z M83.2,102.856 L77.824,102.856 L77.824,102.172 L83.2,102.172 L83.2,102.856 Z M84.304,100.048 L76.768,100.048 L76.768,103.588 L79.78,103.588 L79.324,104.008 C79.984,104.368 80.812,104.908 81.196,105.292 L81.88,104.596 C81.544,104.284 80.932,103.888 80.356,103.588 L84.304,103.588 L84.304,100.048 Z M76.096,106.648 C76.708,106.084 77.2,105.196 77.548,104.452 L76.624,104.044 C76.312,104.752 75.784,105.58 75.184,106.108 L76.096,106.648 Z M81.724,105.928 L79.816,105.928 C79.228,105.928 79.12,105.88 79.12,105.58 L79.12,104.164 L78.04,104.164 L78.04,105.592 C78.04,106.576 78.364,106.84 79.708,106.84 L81.82,106.84 C82.852,106.84 83.152,106.516 83.284,105.184 C82.996,105.124 82.564,104.968 82.324,104.824 C82.276,105.796 82.192,105.928 81.724,105.928 Z M83.284,104.332 C83.872,104.98 84.496,105.88 84.748,106.468 L85.708,106.024 C85.42,105.424 84.772,104.56 84.172,103.924 L83.284,104.332 Z M89.728,97.672 L95.2,97.672 L95.2,103.372 L96.412,103.372 L96.412,96.544 L88.564,96.544 L88.564,103.372 L89.728,103.372 L89.728,97.672 Z M96.172,105.604 L94.384,105.604 L94.1508384,105.598822 C93.8143796,105.580033 93.7269877,105.5028 93.7138789,105.252422 L93.712,102.364 L92.668,102.364 C92.872,101.308 92.932,100.084 92.98,98.68 L91.804,98.68 L91.7751488,99.6292979 C91.6489396,103.058371 91.2186939,105.029224 87.064,105.988 C87.292,106.24 87.592,106.672 87.7,106.96 C90.88,106.168 92.104,104.74 92.608,102.628 L92.608,105.184 C92.608,106.324 92.992,106.636 94.264,106.636 L96.256,106.636 C97.444,106.636 97.756,106.168 97.888,104.26 C97.6,104.188 97.12,104.02 96.868,103.828 L96.8541211,104.202601 C96.7998563,105.413928 96.676,105.604 96.172,105.604 Z M102.352,101.632 L104.128,101.632 L104.128,100.612 L102.352,100.612 L102.352,99.352 L102.34,99.352 L102.892,99.1 C102.796,98.8 102.628,98.38 102.412,97.984 L104.356,97.984 L104.356,97.036 L101.452,97.036 C101.572,96.748 101.692,96.436 101.8,96.148 L100.732,95.872 C100.36,97.048 99.7,98.236 98.944,98.992 C99.208,99.136 99.664,99.448 99.868,99.616 C100.264,99.172 100.636,98.608 100.984,97.984 L101.296,97.984 C101.536,98.428 101.752,98.968 101.884,99.352 L101.284,99.352 L101.284,100.612 L99.268,100.612 L99.268,101.632 L101.068,101.632 C100.552,102.82 99.688,104.128 98.896,104.824 C99.148,105.04 99.436,105.424 99.604,105.688 C100.18,105.1 100.78,104.236 101.284,103.324 L101.284,106.96 L102.352,106.96 L102.352,103.156 L102.650305,103.505728 C102.997481,103.916741 103.329333,104.325333 103.516,104.596 L104.236,103.708 L103.541085,103.056851 C103.129796,102.67551 102.646857,102.233714 102.352,101.98 L102.352,101.632 Z M108.34,100.756 L108.34,101.752 L105.532,101.752 L105.532,100.756 L108.34,100.756 Z M105.532,103.624 L105.532,102.604 L108.34,102.604 L108.34,103.624 L105.532,103.624 Z M105.532,105.52 L105.532,104.476 L108.34,104.476 L108.34,105.52 L105.532,105.52 Z M104.464,106.924 L105.532,106.924 L105.532,106.432 L108.34,106.432 L108.34,106.852 L109.468,106.852 L109.468,99.772 L104.464,99.772 L104.464,106.924 Z M106.192,97.048 L109.864,97.048 L109.864,97.984 L107.476,97.984 C107.776,98.38 108.04,98.812 108.184,99.136 L107.224,99.52 C107.068,99.112 106.672,98.488 106.3,97.984 L105.724,97.984 C105.376,98.572 105.004,99.1 104.608,99.508 C104.392,99.328 103.924,99.016 103.66,98.872 C104.44,98.164 105.088,97.036 105.436,95.872 L106.54,96.148 C106.444,96.448 106.324,96.748 106.192,97.048 Z" id="意见箱" fill="#333333" fill-rule="nonzero"></path>
                    <rect id="矩形备份-4" fill="#CED5FE" x="37.5" y="70" width="106" height="9"></rect>
                    <path d="M38.4302764,47 L142.569724,47 C143.39302,47 144.132201,47.5045126 144.432209,48.2712013 L153.432209,71.2712013 C153.834714,72.2998237 153.327145,73.4599812 152.298522,73.8624856 C152.066287,73.9533601 151.819105,74 151.569724,74 L29.4302764,74 C28.3257069,74 27.4302764,73.1045695 27.4302764,72 C27.4302764,71.7506183 27.4769163,71.5034362 27.5677908,71.2712013 L36.5677908,48.2712013 C36.8677994,47.5045126 37.6069801,47 38.4302764,47 Z" id="矩形备份-3" fill="#4E68FF"></path>
                    <rect id="矩形备份-6" fill="#0525DB" x="50.5" y="55" width="80" height="1"></rect>
                    <g id="编组-20" transform="translate(68.500000, 9.000000)">
                        <path d="M23.8630137,61 C30.5936073,38.5422886 44.9726027,28.2238806 67,30.0447761 C65.7762557,23.3681592 59.3515982,13.3532338 47.7260274,0 C22.0273973,4.24875622 6.11872146,15.7810945 0,34.5970149 C6.73059361,46.1293532 14.6849315,54.9303483 23.8630137,61 Z" id="路径-11" fill="#FFFFFF"></path>
                        <path d="M47.9198533,-0.538832682 L48.600582,0.244681495 L49.5904632,1.39494425 C60.3343835,13.9551292 66.3007947,23.4565978 67.4918072,29.9546337 L67.6095211,30.5968677 L66.3074881,30.4926361 C44.889371,28.9465796 30.9394875,39.1298485 24.3419663,61.1435425 L24.1487075,61.7883816 L23.5872092,61.4170514 C14.542646,55.4356985 6.68436185,46.8285009 0.0112820505,35.6014 L-0.544791764,34.6555013 L-0.287063795,33.8742809 C5.96573205,15.3862919 21.7144071,3.9708481 46.8790233,-0.36410843 L47.9198533,-0.538832682 Z M47.5322945,0.539159889 C22.2638324,4.77977201 6.62915317,16.1102399 0.545224955,34.5388129 C7.07744064,45.6785425 14.7564003,54.2335382 23.5810437,60.209662 C30.3913511,38.202061 44.6941606,27.9311218 66.376916,29.4950512 C64.9446703,23.1671084 58.9939856,13.8818369 48.5268228,1.69060032 L47.5322945,0.539159889 Z" id="路径-11备份" fill="#333333" fill-rule="nonzero"></path>
                        <line x1="39.5909091" y1="7.13515152" x2="49.7424242" y2="20.5921212" id="直线-2" stroke="#333333" stroke-linecap="round"></line>
                        <line x1="34.6166667" y1="9.98181818" x2="41.3166667" y2="19.9636364" id="直线-2备份" stroke="#333333" stroke-linecap="round"></line>
                        <line x1="8.93333333" y1="31.0545455" x2="15.6333333" y2="41.0363636" id="直线-2备份-2" stroke="#333333" stroke-linecap="round"></line>
                    </g>
                    <rect id="矩形备份-5" fill="#4E68FF" x="50.5" y="57" width="80" height="16" rx="2"></rect>
                    <rect id="矩形" fill="#0525DB" x="50.5" y="56" width="80" height="2"></rect>
                    <line x1="13" y1="131" x2="134.998967" y2="131" id="直线" stroke="#333333" stroke-linecap="round"></line>
                    <line x1="104.5" y1="3" x2="106.5" y2="6" id="路径-16" stroke="#333333" stroke-linecap="round"></line>
                    <line x1="111.72762" y1="0" x2="112.27238" y2="4" id="路径-16备份" stroke="#333333" stroke-linecap="round"></line>
                    <line x1="120.322648" y1="0" x2="119.677352" y2="4" id="路径-16备份-2" stroke="#333333" stroke-linecap="round"></line>
                    <line x1="139" y1="131" x2="164" y2="131" id="直线备份-4" stroke="#333333" stroke-linecap="round"></line>
                </g>
            </g>
        </g>
    </g>
</svg>