<?xml version="1.0" encoding="UTF-8"?>
<svg width="152px" height="133px" viewBox="0 0 152 133" version="1.1" xmlns="http://www.w3.org/2000/svg" xmlns:xlink="http://www.w3.org/1999/xlink">
    <!-- Generator: Sketch 63.1 (92452) - https://sketch.com -->
    <title>编组 21</title>
    <desc>Created with Sketch.</desc>
    <g id="员工首页" stroke="none" stroke-width="1" fill="none" fill-rule="evenodd">
        <g id="员工首页（三等份和二等分样式）" transform="translate(-377.000000, -3173.000000)">
            <g id="Group备份-8" transform="translate(229.000000, 3098.000000)">
                <g id="编组-21" transform="translate(135.000000, 75.000000)">
                    <rect id="矩形" fill="#E9ECFD" x="37.5" y="52" width="106" height="79"></rect>
                    <rect id="矩形备份-4" fill="#CED5FE" x="37.5" y="70" width="106" height="9"></rect>
                    <path d="M38.4302764,47 L142.569724,47 C143.39302,47 144.132201,47.5045126 144.432209,48.2712013 L153.432209,71.2712013 C153.834714,72.2998237 153.327145,73.4599812 152.298522,73.8624856 C152.066287,73.9533601 151.819105,74 151.569724,74 L29.4302764,74 C28.3257069,74 27.4302764,73.1045695 27.4302764,72 C27.4302764,71.7506183 27.4769163,71.5034362 27.5677908,71.2712013 L36.5677908,48.2712013 C36.8677994,47.5045126 37.6069801,47 38.4302764,47 Z" id="矩形备份-3" fill="#4E68FF"></path>
                    <rect id="矩形备份-6" fill="#0525DB" x="50.5" y="55" width="80" height="1"></rect>
                    <g id="编组-20" transform="translate(68.500000, 9.000000)" stroke="#333333">
                        <path d="M23.8630137,61 C30.5936073,38.5422886 44.9726027,28.2238806 67,30.0447761 C65.7762557,23.3681592 59.3515982,13.3532338 47.7260274,0 C22.0273973,4.24875622 6.11872146,15.7810945 0,34.5970149 C6.73059361,46.1293532 14.6849315,54.9303483 23.8630137,61 Z" id="路径-11" fill="#FFFFFF"></path>
                        <line x1="39.5909091" y1="7.13515152" x2="49.7424242" y2="20.5921212" id="直线-2" stroke-linecap="round"></line>
                        <line x1="34.6166667" y1="9.98181818" x2="41.3166667" y2="19.9636364" id="直线-2备份" stroke-linecap="round"></line>
                        <line x1="8.93333333" y1="31.0545455" x2="15.6333333" y2="41.0363636" id="直线-2备份-2" stroke-linecap="round"></line>
                    </g>
                    <rect id="矩形备份-5" fill="#4E68FF" x="50.5" y="57" width="80" height="16" rx="2"></rect>
                    <rect id="矩形" fill="#0525DB" x="50.5" y="56" width="80" height="2"></rect>
                    <line x1="13" y1="132" x2="134.5" y2="131.5" id="直线" stroke="#333333" stroke-linecap="round"></line>
                    <line x1="104.5" y1="3" x2="106.5" y2="6" id="路径-16" stroke="#333333" stroke-linecap="round"></line>
                    <line x1="111.72762" y1="0" x2="112.27238" y2="4" id="路径-16备份" stroke="#333333" stroke-linecap="round"></line>
                    <line x1="120.322648" y1="0" x2="119.677352" y2="4" id="路径-16备份-2" stroke="#333333" stroke-linecap="round"></line>
                    <line x1="139" y1="131.5" x2="164" y2="131.5" id="直线备份-4" stroke="#333333" stroke-linecap="round"></line>
                </g>
            </g>
        </g>
    </g>
</svg>